<?xml version="1.0" encoding="UTF-8" standalone="no"?>
<!-- Created with Inkscape (http://www.inkscape.org/) -->

<svg
   xmlns:dc="http://purl.org/dc/elements/1.1/"
   xmlns:cc="http://creativecommons.org/ns#"
   xmlns:rdf="http://www.w3.org/1999/02/22-rdf-syntax-ns#"
   xmlns:svg="http://www.w3.org/2000/svg"
   xmlns="http://www.w3.org/2000/svg"
   xmlns:sodipodi="http://sodipodi.sourceforge.net/DTD/sodipodi-0.dtd"
   xmlns:inkscape="http://www.inkscape.org/namespaces/inkscape"
   width="3mm"
   height="3mm"
   viewBox="-60 -60 3 3"
   sodipodi:docname="menu.svg"
   version="1.1"
   id="svg857"
   inkscape:version="0.92.3 (2405546, 2018-03-11)">
  <defs
     id="defs859" />
  <sodipodi:namedview
     pagecolor="#ffffff"
     bordercolor="#666666"
     borderopacity="1.0"
     inkscape:pageopacity="0.0"
     inkscape:pageshadow="2"
     inkscape:zoom="75.318056"
     inkscape:cx="3.1068247"
     inkscape:cy="5.6427372"
     inkscape:document-units="mm"
     inkscape:current-layer="Template"
     showgrid="false"
     units="mm"
     showguides="true"
     inkscape:guide-bbox="true"
     inkscape:snap-global="true"
     inkscape:snap-bbox="true"
     inkscape:snap-bbox-midpoints="true"
     inkscape:window-width="1920"
     inkscape:window-height="1049"
     inkscape:window-x="1920"
     inkscape:window-y="0"
     inkscape:window-maximized="1"
     inkscape:bbox-paths="true"
     inkscape:bbox-nodes="true"
     inkscape:snap-bbox-edge-midpoints="true"
     inkscape:snap-grids="true"
     id="namedview847">
    <sodipodi:guide
       orientation="1,0"
       position="226.771653543,226.771653543"
       id="guide2827"
       inkscape:locked="false" />
    <sodipodi:guide
       orientation="0,1"
       position="226.771653543,226.771653543"
       id="guide2829"
       inkscape:locked="false" />
    <inkscape:grid
       type="xygrid"
       id="grid3072"
       empspacing="10"
       visible="true"
       enabled="true"
       snapvisiblegridlinesonly="true"
       units="mm"
       dotted="false"
       spacingx="0.1mm"
       spacingy="0.1mm" />
  </sodipodi:namedview>
  <metadata
     id="metadata2822">
    <rdf:RDF>
      <cc:Work
         rdf:about="">
        <dc:format>image/svg+xml</dc:format>
        <dc:type
           rdf:resource="http://purl.org/dc/dcmitype/StillImage" />
        <dc:title />
      </cc:Work>
    </rdf:RDF>
  </metadata>
  <g
     inkscape:label="Layer 1"
     inkscape:groupmode="layer"
     id="Template"
     style="fill:none;stroke:#000000;stroke-width:0.05"
     transform="translate(0,-117)">
    <g
       transform="matrix(0.20948833,0,0,0.22551353,-36.257512,60.867892)"
       id="Icons"
       style="opacity:0.75;fill:#ffffff;fill-opacity:1;stroke:#000000;stroke-width:0.05">
      <path
         inkscape:connector-curvature="0"
         id="menu"
         d="m -112.125,-7.0000003 h 12 c 0.552998,0 0.999998,0.447 0.999998,1 v 1 c 0,0.553 -0.447,1 -0.999998,1 h -12 c -0.553,0 -1,-0.447 -1,-1 v -1 c 0,-0.553 0.447,-1 1,-1 z M -113.125,-11 v 1 c 0,0.5529997 0.447,0.9999997 1,0.9999997 h 12 c 0.552998,0 0.999998,-0.447 0.999998,-0.9999997 v -1 c 0,-0.553 -0.447,-1 -0.999998,-1 h -12 c -0.553,0 -1,0.447 -1,1 z m 0,-5 v 1 c 0,0.553 0.447,1 1,1 h 12 c 0.552998,0 0.999998,-0.447 0.999998,-1 v -1 c 0,-0.553 -0.447,-1 -0.999998,-1 h -12 c -0.553,0 -1,0.447 -1,1 z"
         style="fill:#ffffff;fill-opacity:1" />
    </g>
  </g>
</svg>
