<?xml version="1.0" encoding="UTF-8" standalone="no"?>
<!-- Created with Inkscape (http://www.inkscape.org/) -->

<svg
   xmlns:dc="http://purl.org/dc/elements/1.1/"
   xmlns:cc="http://creativecommons.org/ns#"
   xmlns:rdf="http://www.w3.org/1999/02/22-rdf-syntax-ns#"
   xmlns:svg="http://www.w3.org/2000/svg"
   xmlns="http://www.w3.org/2000/svg"
   xmlns:sodipodi="http://sodipodi.sourceforge.net/DTD/sodipodi-0.dtd"
   xmlns:inkscape="http://www.inkscape.org/namespaces/inkscape"
   version="1.1"
   id="svg2"
   width="3mm"
   height="3mm"
   viewBox="0 0 11.338583 11.338583"
   sodipodi:docname="settings.svg"
   inkscape:version="0.92.3 (2405546, 2018-03-11)">
  <metadata
     id="metadata8">
    <rdf:RDF>
      <cc:Work
         rdf:about="">
        <dc:format>image/svg+xml</dc:format>
        <dc:type
           rdf:resource="http://purl.org/dc/dcmitype/StillImage" />
        <dc:title></dc:title>
      </cc:Work>
    </rdf:RDF>
  </metadata>
  <defs
     id="defs6" />
  <sodipodi:namedview
     pagecolor="#ffffff"
     bordercolor="#666666"
     borderopacity="1"
     objecttolerance="10"
     gridtolerance="10"
     guidetolerance="10"
     inkscape:pageopacity="0"
     inkscape:pageshadow="2"
     inkscape:window-width="1920"
     inkscape:window-height="1049"
     id="namedview4"
     showgrid="false"
     units="mm"
     inkscape:zoom="75.318056"
     inkscape:cx="5.6692913"
     inkscape:cy="5.6896899"
     inkscape:window-x="0"
     inkscape:window-y="0"
     inkscape:window-maximized="1"
     inkscape:current-layer="svg2" />
  <path
     id="path817"
     style="fill:#ffffff;fill-opacity:1;stroke:#000000;stroke-width:0.09928624;stroke-miterlimit:4;stroke-dasharray:none;stroke-opacity:1"
     d="m 6.2466166,7.4729777 c 0.6007045,-0.1921312 1.045828,-0.6363883 1.2453292,-1.2429056 0.05724,-0.1740205 0.061455,-0.211708 0.061455,-0.5495126 0,-0.3378044 -0.00422,-0.3754919 -0.061455,-0.5495124 C 7.3321213,4.6451538 7.0165462,4.2643998 6.5749935,4.0247074 6.1216987,3.7786407 5.5025088,3.7421459 5.015697,3.9328027 4.5447398,4.1172502 4.132429,4.5292945 3.9478624,4.9999477 3.80521,5.3637171 3.7871145,5.8650335 3.9034595,6.2300721 4.1138503,6.8901837 4.623447,7.3558876 5.3118416,7.5171468 c 0.090879,0.02129 0.2278437,0.028536 0.4398941,0.023275 0.2611596,-0.00644 0.3363197,-0.016724 0.4948809,-0.067443 z M 4.9974263,11.266576 C 4.9333715,11.244111 4.844293,11.196457 4.7994739,11.160657 4.6991702,11.080564 4.5837712,10.913972 4.5537391,10.805913 4.5413835,10.761456 4.5312192,10.502454 4.5311526,10.23035 L 4.5310294,9.735616 4.3165809,9.662662 C 4.1986345,9.622537 4.0031564,9.54244 3.8821855,9.484669 L 3.6622384,9.379631 3.3075913,9.728158 C 2.8823153,10.146096 2.8320503,10.175394 2.5405084,10.17526 2.2482393,10.175124 2.1893244,10.138247 1.7027696,9.650891 1.239085,9.186442 1.2036026,9.130876 1.191241,8.849819 1.1789728,8.570887 1.2319066,8.480847 1.6570795,8.0574319 L 1.9962014,7.7197128 1.8899288,7.4945595 C 1.8314788,7.3707261 1.7510467,7.1740455 1.7111907,7.057492 L 1.6387253,6.8455763 1.1391708,6.8455543 C 0.69077672,6.8455325 0.62737468,6.8409519 0.52008369,6.8008352 0.36039123,6.7411251 0.21452582,6.6086581 0.13882153,6.4545937 L 0.07710107,6.3289844 V 5.6805595 5.0321348 L 0.13824152,4.9077133 C 0.20538667,4.7710722 0.32091261,4.6546851 0.46651602,4.5769915 0.55642552,4.5290159 0.5870087,4.5262528 1.1002273,4.5197366 l 0.5392425,-0.00685 0.072093,-0.2105884 c 0.039651,-0.1158216 0.119916,-0.311905 0.178366,-0.435739 L 1.9962014,3.6414067 1.6594202,3.3053686 C 1.4594077,3.1057975 1.2974996,2.9240157 1.2607352,2.8577465 1.2050388,2.7573529 1.1988312,2.7252215 1.1988312,2.537348 c 0,-0.3058331 0.02453,-0.3460723 0.5043087,-0.8272688 0.4858125,-0.487248 0.5445546,-0.5240304 0.8373685,-0.5243297 0.2925131,-2.991e-4 0.3608531,0.039933 0.777832,0.4579077 L 3.6562781,1.9824024 3.8815761,1.8761985 C 4.00549,1.8177861 4.2017001,1.7375734 4.3175989,1.6979478 l 0.2107247,-0.072046 0.00685,-0.5388942 c 0.00652,-0.51288809 0.00929,-0.54345175 0.057295,-0.63330336 0.077743,-0.14550963 0.1942061,-0.26096117 0.3309357,-0.32806312 l 0.1245019,-0.061101 h 0.6488439 0.648844 l 0.1256874,0.061681 c 0.1541639,0.075655 0.2867166,0.22142698 0.3464651,0.38101664 0.040143,0.10722194 0.044726,0.17058329 0.044748,0.61868844 l 2.2e-5,0.4992318 0.2120527,0.072419 c 0.116625,0.039829 0.3134325,0.1202095 0.4373464,0.178622 L 7.7372166,1.9824024 8.0751543,1.6436572 C 8.4921364,1.225682 8.5604764,1.1854505 8.8529895,1.1857495 c 0.2928138,2.993e-4 0.3515559,0.037082 0.8373684,0.5243297 0.4797781,0.4811965 0.5043091,0.5214357 0.5043091,0.8272688 0,0.1878735 -0.0063,0.220005 -0.06191,0.3203985 -0.03677,0.06627 -0.198672,0.248051 -0.3986841,0.4476221 L 9.3972984,3.6414067 9.5035708,3.8665592 c 0.05845,0.123834 0.1387151,0.3199174 0.1783659,0.4357413 l 0.072095,0.2105885 0.5392433,0.00685 c 0.513219,0.00651 0.543801,0.00927 0.633711,0.057255 0.145602,0.077693 0.26113,0.1940807 0.328274,0.3307218 l 0.06113,0.1244215 V 5.6805639 6.3289888 L 11.25468,6.454595 c -0.0757,0.1540644 -0.221569,0.2865314 -0.381262,0.3462416 -0.10729,0.040117 -0.170693,0.044695 -0.619087,0.044719 l -0.4995528,2.12e-5 -0.072463,0.2119157 C 9.6424556,7.1740424 9.5620236,7.370723 9.5035738,7.4945566 L 9.3973013,7.7197097 9.7340828,8.0557476 C 10.132768,8.453552 10.187129,8.538035 10.201248,8.781748 c 0.01769,0.30531 -0.0016,0.337745 -0.4990703,0.840764 -0.518878,0.524633 -0.5617765,0.552561 -0.8491833,0.552855 -0.292513,2.99e-4 -0.3608531,-0.03993 -0.777832,-0.457908 L 7.7372197,9.378714 7.5119218,9.484917 C 7.3880078,9.543327 7.1917977,9.623543 7.075899,9.663168 l -0.2107247,0.07205 -0.00685,0.538894 c -0.00652,0.512888 -0.00929,0.543451 -0.057293,0.633303 -0.077743,0.14551 -0.1942062,0.26096 -0.3309357,0.328062 l -0.1245017,0.0611 -0.615852,0.0055 c -0.5524323,0.0049 -0.627845,0.0012 -0.7323147,-0.03542 z"
     inkscape:connector-curvature="0" />
</svg>
